<?xml version="1.0" standalone="no"?>
<!DOCTYPE svg PUBLIC "-//W3C//DTD SVG 20010904//EN"
 "http://www.w3.org/TR/2001/REC-SVG-20010904/DTD/svg10.dtd">
<svg version="1.0" xmlns="http://www.w3.org/2000/svg"
 width="2120.000000pt" height="2120.000000pt" viewBox="0 0 2120.000000 2120.000000"
 preserveAspectRatio="xMidYMid meet">

<g transform="translate(0.000000,2120.000000) scale(0.100000,-0.100000)"
fill="#000000" stroke="none">
<path d="M4130 14974 c-19 -2 -73 -10 -120 -16 l-85 -13 135 -6 c163 -8 287
-29 417 -70 562 -180 987 -598 1172 -1154 172 -515 127 -1088 -124 -1580 -25
-48 -45 -89 -45 -91 0 -2 2020 -4 4490 -4 l4490 0 -37 57 c-49 77 -126 241
-158 337 -128 384 -106 816 62 1186 42 93 29 82 -34 -30 -129 -226 -219 -499
-258 -782 -3 -27 -11 -48 -16 -48 -47 0 -3873 291 -3877 295 -3 3 375 6 839 6
464 1 1100 5 1412 8 l569 6 -2274 217 -2273 216 -1115 -168 c-613 -93 -1115
-168 -1116 -167 0 1 -20 58 -43 127 -321 949 -898 1536 -1626 1655 -92 15
-322 27 -385 19z"/>
<path d="M16781 14174 c250 -256 383 -461 478 -739 68 -196 86 -308 85 -540 0
-212 -9 -283 -60 -475 -27 -101 -102 -293 -136 -347 l-20 -33 1243 0 c683 0
1240 2 1238 4 -2 3 -116 48 -254 101 -137 52 -251 97 -253 100 -5 5 287 805
301 823 12 16 297 18 297 1 0 -6 -59 -155 -131 -331 -72 -176 -129 -321 -127
-323 5 -6 623 687 627 703 1 8 -19 95 -45 194 l-49 178 -340 0 -340 0 -765 84
c-421 46 -766 83 -768 81 -1 -1 212 -242 475 -535 263 -293 479 -536 481 -540
2 -4 -53 -58 -122 -119 l-124 -111 -451 0 -451 0 4 23 c20 96 23 423 6 563
-67 546 -349 1006 -791 1290 -138 88 -139 82 -8 -52z"/>
<path d="M3776 14154 c-375 -83 -663 -356 -772 -729 -32 -110 -44 -330 -24
-452 34 -212 136 -410 289 -564 259 -259 623 -355 979 -259 205 56 406 197
542 380 62 83 137 243 167 355 23 88 26 119 26 260 0 140 -3 172 -26 257 -50
188 -136 339 -271 474 -130 130 -285 220 -453 266 -105 28 -356 35 -457 12z
m254 -518 c39 -103 118 -184 204 -207 58 -16 169 -5 249 24 l67 25 -74 -78
c-51 -53 -85 -101 -112 -155 -34 -69 -39 -87 -42 -171 -4 -78 -1 -106 18 -165
25 -78 95 -192 162 -266 45 -49 44 -49 -37 3 -80 50 -163 90 -255 119 -76 25
-100 28 -225 29 -118 1 -152 -3 -220 -22 -86 -25 -227 -92 -303 -144 l-47 -32
28 35 c116 143 155 210 182 315 42 162 -11 320 -158 467 -71 71 -75 76 -38 57
56 -28 146 -50 206 -50 150 0 246 82 301 256 14 42 28 104 31 138 l7 61 18
-92 c10 -51 27 -117 38 -147z"/>
<path d="M15635 13850 c-335 -51 -621 -294 -725 -617 -72 -223 -58 -461 39
-669 52 -110 90 -164 175 -252 438 -452 1176 -322 1442 254 129 278 104 621
-64 880 -129 199 -333 343 -551 390 -87 18 -241 25 -316 14z m139 -358 c45
-222 166 -326 341 -293 35 6 84 20 108 30 l45 19 -68 -67 c-198 -198 -191
-438 19 -675 l36 -40 -35 22 c-193 124 -365 172 -537 152 -130 -15 -244 -59
-382 -147 l-54 -35 57 64 c69 76 132 200 147 286 23 129 -27 258 -145 376 -37
38 -60 66 -50 61 134 -56 196 -65 278 -41 105 31 173 127 205 292 9 46 17 80
18 76 1 -4 9 -40 17 -80z"/>
<path d="M291 13624 c18 -19 89 -86 157 -147 l122 -112 117 -5 118 -5 293
-490 c161 -269 297 -496 301 -504 6 -9 199 -53 561 -128 304 -62 555 -111 557
-109 2 2 -13 30 -33 62 -56 88 -148 287 -182 394 -48 150 -60 211 -88 438 l-5
42 -274 0 -274 0 -233 300 -233 299 -469 1 -470 0 35 -36z"/>
<path d="M18170 11552 c0 -82 -3 -183 -6 -225 l-7 -77 1092 0 1091 0 0 225 0
225 -1085 0 -1085 0 0 -148z"/>
<path d="M20790 10187 l0 -233 66 -32 c37 -18 70 -30 74 -25 11 12 160 384
160 398 0 21 -236 125 -285 125 -13 0 -15 -31 -15 -233z"/>
<path d="M20787 9293 c-9 -332 -9 -813 0 -813 3 0 31 14 62 31 229 129 343
330 327 571 -10 154 -67 267 -180 359 -54 44 -170 109 -193 109 -6 0 -12 -103
-16 -257z"/>
<path d="M20160 7910 l0 -60 100 0 100 0 0 60 0 60 -100 0 -100 0 0 -60z"/>
<path d="M6473 7921 c-25 -12 -48 -32 -57 -50 -29 -54 -23 -61 48 -61 36 0 68
5 71 10 3 6 17 10 31 10 21 0 25 -4 22 -22 -2 -17 -11 -24 -30 -26 -26 -3 -28
-6 -28 -53 0 -44 2 -49 23 -49 46 0 66 -53 25 -66 -16 -5 -27 -1 -39 15 -14
18 -28 21 -84 21 l-67 0 6 -32 c15 -75 71 -111 176 -111 114 0 170 42 170 129
0 29 -7 44 -33 68 l-33 31 28 23 c54 45 28 136 -48 168 -47 20 -131 17 -181
-5z"/>
<path d="M8621 7927 c-19 -6 -54 -29 -77 -51 -68 -66 -83 -163 -39 -253 82
-163 340 -157 410 9 26 64 23 68 -55 68 -42 0 -70 -4 -70 -10 0 -6 -11 -22
-25 -35 -30 -31 -73 -32 -108 -5 -78 62 -11 191 82 159 17 -6 36 -20 42 -30 8
-16 21 -19 79 -19 42 0 70 4 70 10 0 24 -41 89 -74 118 -57 49 -153 65 -235
39z"/>
<path d="M10963 7921 c-25 -12 -48 -32 -57 -50 -29 -54 -23 -61 48 -61 36 0
68 5 71 10 3 6 17 10 31 10 21 0 25 -4 22 -22 -2 -17 -11 -24 -30 -26 -26 -3
-28 -6 -28 -53 0 -44 2 -49 23 -49 46 0 66 -53 25 -66 -16 -5 -27 -1 -39 15
-14 18 -28 21 -84 21 l-67 0 6 -32 c15 -75 71 -111 176 -111 114 0 170 42 170
129 0 29 -7 44 -33 68 l-33 31 28 23 c54 45 28 136 -48 168 -47 20 -131 17
-181 -5z"/>
<path d="M11616 7925 c-47 -17 -91 -57 -118 -109 -31 -60 -23 -161 17 -218 81
-115 286 -124 368 -15 19 26 47 87 47 103 0 2 -31 4 -68 4 -64 0 -70 -2 -89
-29 -12 -15 -34 -31 -49 -34 -35 -6 -82 10 -95 34 -9 17 -6 19 41 19 l50 0 0
45 0 45 -52 0 -53 1 28 24 c41 36 91 34 127 -5 26 -28 34 -30 95 -30 64 0 66
1 59 23 -38 125 -177 189 -308 142z"/>
<path d="M12910 7931 c-112 -36 -168 -120 -158 -232 12 -116 107 -194 237
-193 143 1 233 83 233 213 1 89 -40 159 -117 199 -34 17 -157 26 -195 13z
m145 -146 c38 -37 35 -95 -6 -129 -64 -54 -154 -18 -154 62 0 59 34 92 92 92
33 0 50 -6 68 -25z"/>
<path d="M6891 7908 c-5 -13 -41 -104 -80 -203 -39 -99 -71 -183 -71 -187 0
-5 32 -8 71 -8 69 0 70 0 80 30 11 29 13 30 75 30 60 0 64 -1 79 -30 15 -29
18 -30 85 -30 50 0 70 4 70 13 0 7 -35 100 -78 207 l-78 195 -72 3 c-67 3 -73
1 -81 -20z m102 -185 c9 -27 17 -51 17 -55 0 -5 -18 -8 -40 -8 -25 0 -40 5
-40 12 0 19 32 98 39 98 4 0 15 -21 24 -47z"/>
<path d="M7220 7720 l0 -210 70 0 70 0 0 145 0 145 50 0 50 0 0 -145 0 -145
70 0 70 0 0 210 0 210 -190 0 -190 0 0 -210z"/>
<path d="M7650 7838 c0 -148 38 -199 155 -206 l65 -4 0 -59 0 -59 70 0 70 0 0
210 0 210 -70 0 -70 0 0 -84 c0 -75 -2 -85 -20 -91 -10 -3 -28 -1 -40 5 -18 9
-20 20 -20 90 l0 80 -70 0 -70 0 0 -92z"/>
<path d="M8117 7738 c-42 -106 -79 -201 -83 -210 -5 -16 1 -18 65 -18 68 0 71
1 86 30 15 29 19 30 79 30 62 0 64 -1 75 -30 10 -30 10 -30 86 -30 42 0 75 4
73 9 -1 5 -39 99 -83 210 l-80 201 -71 0 -70 0 -77 -192z m183 -65 c0 -8 -15
-13 -41 -13 -46 0 -47 5 -13 85 l16 40 19 -50 c10 -28 19 -56 19 -62z"/>
<path d="M8950 7865 l0 -65 55 0 55 0 0 -145 0 -145 70 0 70 0 0 145 0 145 55
0 55 0 0 65 0 65 -180 0 -180 0 0 -65z"/>
<path d="M9350 7720 l0 -211 67 3 67 3 51 83 c75 122 75 122 75 9 l0 -97 65 0
65 0 0 210 0 210 -67 0 -68 -1 -55 -92 -55 -92 -3 93 -3 92 -69 0 -70 0 0
-210z"/>
<path d="M9792 7723 l3 -208 68 -3 67 -3 0 76 0 75 50 0 49 0 3 -72 3 -73 68
-3 67 -3 0 211 0 210 -70 0 -70 0 0 -70 0 -70 -50 0 -50 0 0 70 0 70 -70 0
-70 0 2 -207z"/>
<path d="M10230 7720 l0 -210 65 0 64 0 58 95 58 94 5 -92 5 -92 68 -3 67 -3
0 211 0 210 -67 0 -68 0 -60 -98 -60 -97 -3 98 -3 97 -64 0 -65 0 0 -210z"/>
<path d="M11970 7719 l0 -211 133 4 c154 4 192 18 215 80 17 45 10 81 -23 114
l-25 25 22 30 c24 32 28 83 8 119 -20 38 -69 50 -205 50 l-125 0 0 -211z m188
112 c8 -4 12 -19 10 -32 -2 -19 -10 -25 -35 -27 -32 -3 -33 -2 -33 32 0 31 3
36 23 36 12 0 28 -4 35 -9z m23 -167 c20 -24 -1 -48 -45 -52 -35 -3 -36 -2
-36 32 0 34 2 36 34 36 18 0 39 -7 47 -16z"/>
<path d="M12370 7720 l0 -211 68 3 67 3 3 46 3 46 49 6 c106 13 162 66 163
156 1 54 -23 103 -66 135 -25 18 -45 21 -158 24 l-129 4 0 -212z m198 88 c29
-29 7 -78 -35 -78 -21 0 -23 5 -23 45 0 40 2 45 23 45 13 0 28 -5 35 -12z"/>
<path d="M13270 7720 l0 -211 68 3 67 3 3 143 3 142 44 0 44 0 3 -142 3 -143
68 -3 67 -3 0 211 0 210 -185 0 -185 0 0 -210z"/>
<path d="M13700 7720 l0 -210 65 0 64 0 58 95 58 94 5 -92 5 -92 68 -3 67 -3
0 211 0 210 -67 0 -68 0 -60 -98 -60 -97 -3 98 -3 97 -64 0 -65 0 0 -210z"/>
<path d="M20160 7530 l0 -60 100 0 100 0 0 60 0 60 -100 0 -100 0 0 -60z"/>
<path d="M6670 6327 c8 -8 463 -354 1010 -769 2203 -1669 2004 -1522 2145
-1579 126 -50 197 -63 345 -62 168 0 251 20 405 98 93 47 199 123 700 503 325
246 991 751 1480 1121 490 371 897 680 905 688 19 18 -526 -342 -1910 -1262
-674 -448 -1098 -724 -1155 -751 -135 -64 -225 -85 -390 -91 -202 -7 -338 21
-506 107 -48 24 -1050 686 -2729 1803 -173 115 -308 202 -300 194z"/>
</g>
</svg>
